<?xml version="1.0" standalone="no"?>
<!DOCTYPE svg PUBLIC "-//W3C//DTD SVG 20010904//EN"
 "http://www.w3.org/TR/2001/REC-SVG-20010904/DTD/svg10.dtd">
<svg version="1.0" xmlns="http://www.w3.org/2000/svg"
 width="512.000000pt" height="512.000000pt" viewBox="0 0 512.000000 512.000000"
 preserveAspectRatio="xMidYMid meet">
<metadata>
Created by potrace 1.14, written by Peter Selinger 2001-2017
</metadata>
<g transform="translate(0.000000,512.000000) scale(0.100000,-0.100000)"
fill="#000000" stroke="none">
<path d="M4471 4914 c-19 -14 -72 -18 -319 -25 -364 -11 -470 -20 -687 -64
-275 -55 -830 -153 -960 -170 -277 -37 -617 -30 -860 17 -148 29 -377 31 -482
4 -85 -21 -155 -63 -183 -108 -37 -61 -22 -196 27 -250 22 -25 15 -125 -41
-568 -41 -324 -50 -373 -99 -555 -30 -110 -62 -234 -71 -275 -32 -144 -118
-446 -186 -655 -101 -309 -151 -521 -170 -720 -16 -173 -13 -296 10 -386 11
-43 22 -93 24 -110 4 -36 66 -105 113 -125 75 -32 206 -13 351 52 110 49 92
56 173 -70 l73 -113 83 -42 c89 -44 136 -50 233 -31 25 4 46 7 48 6 5 -6 -40
-221 -52 -251 -12 -28 -10 -37 24 -109 21 -44 40 -97 43 -119 7 -48 47 -93 96
-107 66 -18 127 -10 347 44 679 168 1471 265 1859 227 174 -17 277 -36 399
-76 69 -22 128 -35 162 -35 50 0 56 3 103 50 93 93 106 163 84 460 -35 458
-43 2077 -13 2610 19 341 50 709 78 915 35 258 38 462 7 514 -39 67 -159 103
-214 65z m-171 -447 c0 -2 -9 -90 -20 -196 -79 -769 -111 -1625 -91 -2441 10
-374 33 -912 44 -1012 3 -26 2 -27 -32 -23 -215 31 -661 44 -906 26 -395 -28
-833 -99 -1217 -196 -53 -14 -98 -25 -100 -25 -2 0 -3 48 -3 108 -1 92 -5 122
-33 211 -18 58 -41 114 -52 126 -14 14 -17 24 -10 31 7 7 -8 22 -47 47 l-58
37 -115 0 c-171 0 -181 3 -210 58 -27 52 -46 72 -147 154 l-69 57 -155 -9
c-85 -6 -165 -12 -178 -15 l-24 -6 6 153 c11 237 28 311 219 908 61 194 127
422 148 520 64 286 137 763 165 1083 7 88 16 161 19 164 3 3 128 0 278 -7 161
-8 394 -11 568 -7 l295 5 310 75 c171 41 380 86 465 101 164 27 448 63 540 69
73 4 410 8 410 4z"/>
<path d="M3440 3725 c-74 -13 -174 -24 -221 -24 -126 -1 -243 -25 -432 -88
-191 -63 -184 -63 -348 -9 -185 62 -343 57 -529 -14 -74 -29 -96 -43 -164
-109 -103 -99 -110 -116 -91 -217 12 -60 21 -84 40 -101 35 -31 98 -46 172
-41 58 4 65 7 116 55 78 74 149 90 222 52 66 -33 263 -69 385 -69 131 0 295
31 454 86 48 17 52 17 135 -4 118 -31 172 -28 308 13 99 30 130 35 217 35 90
0 107 3 162 29 80 38 132 85 160 146 32 68 31 127 -3 196 -41 79 -54 84 -268
86 -149 1 -203 -3 -315 -22z"/>
<path d="M1633 2446 c-230 -116 -233 -119 -233 -260 l0 -94 45 -36 c53 -44
103 -66 147 -66 42 0 169 48 236 90 39 24 66 32 119 36 63 5 82 1 244 -50
l177 -57 112 25 c115 27 128 33 212 112 36 34 53 60 73 116 l26 72 -53 49
c-82 75 -115 87 -238 87 -87 0 -118 5 -180 26 -77 27 -224 42 -417 43 l-81 1
-189 -94z"/>
<path d="M3125 1899 c-202 -13 -260 -30 -400 -112 -66 -39 -123 -75 -127 -81
-20 -30 -34 -50 -46 -62 -21 -22 9 -250 36 -271 10 -8 49 -13 105 -13 l90 0
82 70 82 69 97 12 c92 11 98 10 119 -9 12 -11 64 -41 116 -66 104 -50 134 -55
250 -35 150 26 235 100 257 222 11 65 11 73 -4 85 -9 7 -27 21 -39 32 -39 33
-78 49 -209 81 -78 18 -137 38 -150 50 -23 21 -77 40 -109 38 -11 -1 -78 -6
-150 -10z"/>
</g>
</svg>
